<?xml version="1.0" standalone="no"?>
<!DOCTYPE svg PUBLIC "-//W3C//DTD SVG 20010904//EN"
 "http://www.w3.org/TR/2001/REC-SVG-20010904/DTD/svg10.dtd">
<svg version="1.0" xmlns="http://www.w3.org/2000/svg"
 width="700.000000pt" height="700.000000pt" viewBox="0 0 700.000000 700.000000"
 preserveAspectRatio="xMidYMid meet">
<metadata>
Created by potrace 1.14, written by Peter Selinger 2001-2017
</metadata>
<g transform="translate(0.000000,700.000000) scale(0.100000,-0.100000)"
fill="#000000" stroke="none">
<path d="M3278 6995 c-1 -1 -41 -5 -88 -9 -47 -4 -96 -8 -110 -10 -14 -2 -46
-7 -71 -10 -25 -4 -57 -9 -70 -11 -13 -3 -39 -7 -59 -10 -138 -21 -462 -114
-600 -171 -25 -10 -47 -19 -50 -19 -17 -4 -214 -97 -300 -143 -328 -173 -668
-425 -907 -672 -60 -63 -223 -251 -263 -304 -139 -186 -282 -417 -364 -591
-17 -36 -35 -74 -40 -85 -30 -65 -122 -305 -147 -385 -62 -197 -115 -429 -144
-635 -23 -160 -29 -539 -12 -695 31 -285 90 -538 183 -790 31 -82 105 -251
132 -305 12 -22 38 -74 59 -115 75 -149 248 -410 365 -550 83 -99 118 -138
240 -260 95 -96 334 -295 463 -385 126 -88 358 -225 470 -279 155 -73 370
-156 485 -187 23 -6 44 -13 47 -16 10 -10 290 -77 383 -92 72 -12 90 -14 165
-20 33 -3 87 -8 120 -11 67 -7 412 -7 480 0 25 2 75 7 111 10 36 3 76 8 90 10
14 2 50 7 79 11 82 10 312 60 415 91 30 9 64 19 75 21 110 27 388 139 540 218
87 46 293 166 321 187 10 8 50 37 89 65 97 69 280 226 397 339 50 48 211 222
259 280 22 26 43 50 46 53 15 14 114 149 162 219 108 159 219 362 288 530 62
148 142 393 162 495 4 19 11 51 17 70 5 19 12 49 15 65 2 17 9 62 15 100 6 39
13 95 16 125 3 30 7 69 10 85 6 40 6 423 0 475 -3 22 -7 65 -9 95 -14 162 -79
470 -129 610 -5 14 -12 36 -15 50 -7 35 -69 204 -109 300 -92 221 -274 528
-416 701 -37 44 -77 93 -90 109 -76 93 -335 342 -458 439 -183 146 -432 302
-612 385 -31 14 -67 31 -80 36 -54 24 -234 94 -280 109 -27 9 -111 34 -185 55
-129 37 -311 75 -395 84 -19 2 -42 6 -50 9 -8 2 -44 7 -80 10 -36 4 -78 9
-95 12 -35 5 -482 14 -487 9z"/>
</g>
</svg> 